<svg xmlns="http://www.w3.org/2000/svg" width="474.866" height="475.596" viewBox="0 0 474.866 475.596">
  <g id="Group_457" data-name="Group 457" transform="translate(-999.134 -255)">
    <circle id="Ellipse_196" data-name="Ellipse 196" cx="205.5" cy="205.5" r="205.5" transform="translate(1063 267)" fill="#012038"/>
    <g id="Guy_with_paper-01" data-name="Guy with paper-01" transform="translate(999.134 255)">
      <rect id="Rectangle_304" data-name="Rectangle 304" width="68.906" height="86.397" transform="translate(123.995 100.002)" fill="#fab99a"/>
      <path id="Path_837" data-name="Path 837" d="M137.2,119.828v39.957l.372.686c23.5-3.173,45.461-20.7,55.156-41.7Z" transform="translate(-13.205 -0.905)" fill="#023e56"/>
      <path id="Path_838" data-name="Path 838" d="M164.223,180.832c26.6-3.721,55.685-29.831,55.685-56.8a48.262,48.262,0,0,0-44.325-48.81c-35.765-3.212-37.959,21.095-43.717,45.245-.509,2.076-1.019,4.133-1.587,6.189a72.473,72.473,0,0,0-2.84,18.255C126.93,169.765,142.4,183.946,164.223,180.832Z" transform="translate(-21.249 -42.93)" fill="#fab99a"/>
      <path id="Path_839" data-name="Path 839" d="M220.424,147.373c-2.488-20.213-8.109-37.8-25.854-45.324-39.173,16.335-65.988,9.088-75.644-30.712,0,0,24.346,10.107,45.324-3s53.922-18.353,63.6,19.489c20.507,14.573,14.69,36.353,5.249,58.035Z" transform="translate(-26.387 -58.594)" fill="#dbd5a6"/>
      <path id="Path_840" data-name="Path 840" d="M170.067,100.841c-.588,2.781-2.7,4.7-4.74,4.289s-3.232-3.036-2.644-5.876,2.683-4.583,4.642-4.152S170.635,98.118,170.067,100.841Z" transform="translate(-40.295 -23.658)" fill="#023e56"/>
      <ellipse id="Ellipse_198" data-name="Ellipse 198" cx="4.113" cy="5.621" rx="4.113" ry="5.621" transform="translate(153.068 86.179) rotate(-168.28)" fill="#023e56"/>
      <path id="Path_841" data-name="Path 841" d="M162.443,98.415c-.8,2.39-18.607-3.114-17.628-6.914C146.049,86.78,163.5,95.34,162.443,98.415Z" transform="translate(2.194 -28.381)" fill="#023e56"/>
      <path id="Path_842" data-name="Path 842" d="M158.607,91.939c-.274,2.331,14.259,3.271,14.925-.333C174.374,87.121,158.979,88.962,158.607,91.939Z" transform="translate(-35.964 -29.525)" fill="#023e56"/>
      <path id="Path_843" data-name="Path 843" d="M169.749,100.991c-.392,2.605-2.39,3.917-4.544,5.132s-3.761,1.959-3.447,4.466c.274,2.213,1.959,3.389,3.545,4.681,1.058.823-.411,2.272-1.469,1.469-2.566-1.959-5.347-4.72-4.094-8.3,1.391-3.917,7.384-3.917,8.011-7.991.2-1.332,2.194-.764,1.959.548Z" transform="translate(-33.767 -19.205)" fill="#023e56"/>
      <path id="Path_844" data-name="Path 844" d="M156.964,114.395a14.4,14.4,0,0,0,15.669-3.7c.921-.96,2.39.509,1.469,1.469a16.492,16.492,0,0,1-17.726,4.25c-1.254-.47-.725-2.468.548-1.959Z" transform="translate(-31.03 -8.948)" fill="#023e56"/>
      <ellipse id="Ellipse_199" data-name="Ellipse 199" cx="13.867" cy="17.236" rx="13.867" ry="17.236" transform="translate(192.525 115.744) rotate(-125.81)" fill="#fab99a"/>
      <path id="Path_845" data-name="Path 845" d="M122.749,110.449a14.866,14.866,0,0,1,13.006-6.287c1.332,0,1.352,2.155,0,2.076a12.81,12.81,0,0,0-11.2,5.249C123.768,112.565,121.966,111.487,122.749,110.449Z" transform="translate(71.444 -14.933)" fill="#023e56"/>
      <path id="Path_846" data-name="Path 846" d="M247.6,157.567l41.9,19.587a75.82,75.82,0,0,1,39.82,45.049c9.793,29.674,13.143,56.566,11.889,81.5L336.284,420.42l-34.59,1.645H80.952S61.619,225.494,64.832,227.922s41.543-69.533,41.543-69.533l70.688-14.24Z" transform="translate(-19.478 23.426)" fill="#057ca8"/>
      <path id="Path_847" data-name="Path 847" d="M81.32,209.561a.842.842,0,0,0,.8-.548c6.679-16.668,17.628-27.891,31.926-32.455a.9.9,0,0,0,.568-1.1.862.862,0,0,0-1.1-.548c-14.71,4.72-26.129,16.3-32.984,33.454a.823.823,0,0,0,.47,1.116.627.627,0,0,0,.313.078Z" transform="translate(176.001 52.873)" fill="#023e56"/>
      <path id="Path_848" data-name="Path 848" d="M99.932,300.961a.881.881,0,0,0,.862-.823l5.093-100.147a.872.872,0,0,0-1.743-.078L99.071,300.041a.881.881,0,0,0,.823.921Z" transform="translate(148.32 76.094)" fill="#023e56"/>
      <path id="Path_849" data-name="Path 849" d="M30.83,380.443l126.432-.059L207.7,218.97H81.814Z" transform="translate(180.169 95.153)" fill="#e4e7e8"/>
      <path id="Path_850" data-name="Path 850" d="M46.44,239.921h70.786l3.682-11.791-70.747.02Z" transform="translate(236.383 103.935)" fill="#102048"/>
      <path id="Path_851" data-name="Path 851" d="M47.4,279.443l37.626-.02L96.112,244.03H58.525Z" transform="translate(259.299 119.178)" fill="#708cd5"/>
      <rect id="Rectangle_305" data-name="Rectangle 305" width="44.599" height="1.391" transform="translate(260.886 368.418)" fill="#708cd5"/>
      <rect id="Rectangle_306" data-name="Rectangle 306" width="44.618" height="1.391" transform="translate(257.145 380.209)" fill="#708cd5"/>
      <rect id="Rectangle_307" data-name="Rectangle 307" width="44.618" height="1.391" transform="translate(253.443 392.02)" fill="#708cd5"/>
      <path id="Path_852" data-name="Path 852" d="M55.89,278.182l91.744-.02,2.194-7.012-91.724.02Z" transform="translate(188.954 145.177)" fill="#708cd5"/>
      <path id="Path_853" data-name="Path 853" d="M58.11,285.3l91.783-.02,2.194-7.012-91.783.02Z" transform="translate(182.347 152.003)" fill="#708cd5"/>
      <path id="Path_854" data-name="Path 854" d="M60.34,292.441l91.822-.039,2.194-7.012-91.8.039Z" transform="translate(175.71 158.828)" fill="#708cd5"/>
      <path id="Path_855" data-name="Path 855" d="M137.44,144.07c.646,20.723,4.975,35.863,16.57,40.094l4.877-22.29Z" transform="translate(20.165 23.349)" fill="#023e56" opacity="0.6"/>
      <path id="Path_856" data-name="Path 856" d="M169.834,144.07c.235,18.725-5.523,36.705-19,38.958l-2.448-21.467Z" transform="translate(-12.228 23.349)" fill="#023e56" opacity="0.6"/>
      <path id="Path_857" data-name="Path 857" d="M112.39,147.732l16.139,40.094c19.391-3.545,37.215-12.888,53.942-26.6L147.215,140.25A87.708,87.708,0,0,1,112.39,147.732Z" transform="translate(45.646 19.687)" fill="#166e8b"/>
      <path id="Path_858" data-name="Path 858" d="M148.39,162.144c11.948,14.612,28.871,23.191,51.689,24.718.509,1.528,11.87-23.151,19-38.958a78.347,78.347,0,0,1-33.3-7.835Z" transform="translate(-61.473 19.514)" fill="#166e8b"/>
      <path id="Path_859" data-name="Path 859" d="M131.188,257.28c8.971,20.664,12.1,39.624,7.032,56.175l-23.778-11.478,4.25-31.535Z" transform="translate(83.454 131.88)" fill="#023e56"/>
      <path id="Path_860" data-name="Path 860" d="M92.416,274.256c1,0,15.219-22.231,25.208-32.71,6.17-6.483,11.987,3.232,1.959,25.717,0,0,39.448-16.237,44.951-14.494s3.232,9.5-23.23,21.232c0,0,38.214-11.243,40.211-6.992s1.959,10.244-37.215,18.725c0,0,42.209-3.486,37.7,3s-16.688,7.737-36.177,8.481a194.818,194.818,0,0,0,22.956,6.248c4.76,1,1.254,8.736-31.456,9.245-11.223,6.248-33.709,6.483-51.435,3.251l-12.535-10.91Z" transform="translate(122.226 114.904)" fill="#fab99a"/>
      <path id="Path_861" data-name="Path 861" d="M202.987,151.34l-46.44,17.628a60.719,60.719,0,0,0-38.429,48.575c-7.5,54.608,6.131,115.953,32.3,174.028,6.033,13.358,18.744,22.153,35.256,23.406l151.307-.509c-8.736-8.736-14.475-36.94-6.229-55.665L207.139,341.566,185.418,273.4Z" transform="translate(-116.07 30.319)" fill="#057ca8"/>
      <path id="Path_862" data-name="Path 862" d="M272.754,381.391a.863.863,0,0,0,.49-.157.881.881,0,0,0,.235-1.214c-8.873-12.79-13.828-35.746-6.15-54.843l.411-1.018L143.658,306.825c-14.142-43.091-22.74-82.147-26.285-119.244a.866.866,0,0,0-1.724.176c3.565,37.352,12.242,76.643,26.52,120.125l.176.509L265.389,325.55c-7.325,19.45-2.233,42.5,6.738,55.47A.882.882,0,0,0,272.754,381.391Z" transform="translate(-51.884 64.316)" fill="#023e56"/>
    </g>
  </g>
</svg>
