<?xml version="1.0" encoding="iso-8859-1"?>
<!-- Uploaded to: SVG Repo, www.svgrepo.com, Generator: SVG Repo Mixer Tools -->
<svg height="800px" width="800px" version="1.1" id="Layer_1" xmlns="http://www.w3.org/2000/svg" xmlns:xlink="http://www.w3.org/1999/xlink" 
	 viewBox="0 0 512 512" xml:space="preserve">
<g>
	<path style="fill:#2872C9;" d="M405.912,422.636c-7.036-3.708-14.009-7.274-20.913-10.655
		c-40.316-19.783-84.162-31.356-128.997-32.397h-88.276c-44.835,1.042-88.691,12.615-128.998,32.397
		c-6.912,3.381-13.886,6.947-20.921,10.655C6.861,428.4,0.002,439.779,0.002,452.155v59.842h211.862v-0.062l211.862,0.062v-59.842
		C423.726,439.779,416.858,428.4,405.912,422.636"/>
	<path style="fill:#F0C419;" d="M511.998,141.241C511.998,63.232,448.766,0,370.757,0S229.515,63.232,229.515,141.241
		s63.232,141.241,141.241,141.241S511.998,219.251,511.998,141.241"/>
	<polygon style="fill:#EE8472;" points="370.565,44.138 273.656,141.241 300.139,167.724 370.565,97.103 370.76,97.298 
		370.945,97.103 441.38,167.724 467.863,141.241 	"/>
	<polygon style="fill:#CC6B5E;" points="370.655,97.103 317.787,150.069 317.787,220.69 423.718,220.69 423.718,150.069 	"/>
	<g>
		<polygon style="fill:#1D5FA0;" points="211.86,512 97.102,441.379 123.726,383.982 		"/>
		<polygon style="fill:#1D5FA0;" points="211.86,512 326.619,441.379 300.171,384.079 		"/>
	</g>
	<path style="fill:#CB8252;" d="M229.515,141.241c0-17.32,3.266-33.836,8.978-49.17c-8.474-2.383-17.346-3.796-26.633-3.796
		c-60.522,0-105.931,54.237-105.931,114.759v184.726c20.215-4.829,40.889-7.689,61.793-8.174v-43.644
		c12.57,10.911,27.71,17.161,44.138,17.161s31.567-6.25,44.138-17.161v43.644c20.904,0.486,41.578,3.346,61.793,8.174V272.119
		C266.053,251.154,229.515,200.501,229.515,141.241"/>
	<path style="fill:#FDC794;" d="M243.898,203.034h-40.863c-26.598,0-30.217-20.392-35.01-44.138
		c-5.358,32.689-20.392,42.311-35.61,44.138v44.138c0,60.522,35.063,105.931,79.448,105.931c41.763,0,75.255-40.218,79.06-95.382
		C270.867,243.942,254.659,225.068,243.898,203.034"/>
	<path style="fill:#CE9A6F;" d="M211.86,353.103c-16.428,0-31.567-6.25-44.138-17.161v43.644h88.276v-43.644
		C243.428,346.854,228.288,353.103,211.86,353.103"/>
	<path style="fill:#FDC794;" d="M260.536,379.825l-93.193-0.221c-14.663,0.362-29.193,1.924-43.546,4.484L211.86,512v-0.071h0.044
		l88.223-127.779C287.063,381.837,273.856,380.345,260.536,379.825"/>
	<g>
		<path style="fill:#1D5FA0;" d="M105.929,476.69c-4.873,0-8.828,3.946-8.828,8.828V512h17.655v-26.483
			C114.757,480.636,110.802,476.69,105.929,476.69"/>
		<path style="fill:#1D5FA0;" d="M326.619,511.969v-26.456c0-4.873-3.955-8.828-8.828-8.828c-4.873,0-8.828,3.955-8.828,8.828
			v26.447L326.619,511.969z"/>
	</g>
	<path style="fill:#F9A471;" d="M238.343,432.552c-10.593,0-20.003,4.785-26.483,12.2c-6.479-7.415-15.89-12.2-26.483-12.2
		c-4.873,0-8.828,3.946-8.828,8.828c0,4.882,3.955,8.828,8.828,8.828c9.737,0,17.655,7.918,17.655,17.655v31.311l8.775,12.747h0.106
		l8.775-12.747v-31.311c0-9.737,7.918-17.655,17.655-17.655c4.873,0,8.828-3.946,8.828-8.828
		C247.171,436.498,243.216,432.552,238.343,432.552"/>
</g>
</svg>